<svg width="504" height="384" viewBox="0 0 504 384" fill="none"
    xmlns="http://www.w3.org/2000/svg">
    <g id="Code">
        <rect id="terminal-background" width="504" height="384" rx="25" fill="#0C0E3D"/>
        <g id="options">
            <circle id="close" cx="29.5" cy="24.5" r="6.5" fill="#F95F5F"/>
            <circle id="minimize" cx="51.5" cy="24.5" r="6.5" fill="#FBE94D"/>
            <circle id="expand" cx="73.5" cy="24.5" r="6.5" fill="#30DF76"/>
        </g>
        <g id="line-eleven">
            <rect id="rect" x="159" y="333" width="60" height="17" rx="8.5" fill="#FBE94D"/>
            <rect id="rect_2" x="20" y="333" width="120" height="17" rx="8.5" fill="#13C2FA"/>
            <rect id="rect_3" x="231" y="333" width="211" height="17" rx="8.5" fill="#FE6F6F"/>
        </g>
        <g id="line-ten">
            <rect id="rect_4" x="20" y="306" width="312" height="17" rx="8.5" fill="#FBE94D"/>
            <rect id="rect_5" x="356" y="306" width="60" height="17" rx="8.5" fill="#13C2FA"/>
        </g>
        <g id="line-nine">
            <rect id="rect_6" x="20" y="279" width="257" height="17" rx="8.5" fill="#FE6F6F"/>
            <rect id="rect_7" x="355" y="279" width="39" height="17" rx="8.5" fill="#FBE94D"/>
            <rect id="rect_8" x="298" y="279" width="39" height="17" rx="8.5" fill="#13C2FA"/>
        </g>
        <g id="line-eight">
            <rect id="rect_9" x="159" y="252" width="312" height="17" rx="8.5" fill="#FE6F6F"/>
            <rect id="rect_10" x="89" y="252" width="60" height="17" rx="8.5" fill="#13C2FA"/>
            <rect id="rect_11" x="20" y="252" width="60" height="17" rx="8.5" fill="#FBE94D"/>
        </g>
        <g id="line-seven">
            <rect id="rect_12" x="20" y="225" width="312" height="17" rx="8.5" fill="#FBE94D"/>
            <rect id="rect_13" x="340" y="225" width="60" height="17" rx="8.5" fill="#13C2FA"/>
            <rect id="rect_14" x="413" y="225" width="39" height="17" rx="8.5" fill="#FBE94D"/>
        </g>
        <g id="line-six">
            <rect id="rect_15" x="20" y="198" width="312" height="17" rx="8.5" fill="#FE6F6F"/>
            <rect id="rect_16" x="385" y="198" width="82" height="17" rx="8.5" fill="#13C2FA"/>
            <rect id="rect_17" x="336" y="198" width="39" height="17" rx="8.5" fill="#FBE94D"/>
        </g>
        <g id="line-five">
            <rect id="rect_18" x="98" y="171" width="60" height="17" rx="8.5" fill="#FBE94D"/>
            <rect id="rect_19" x="20" y="171" width="60" height="17" rx="8.5" fill="#13C2FA"/>
            <rect id="rect_20" x="176" y="171" width="211" height="17" rx="8.5" fill="#FE6F6F"/>
        </g>
        <g id="line-four">
            <rect id="rect_21" x="20" y="144" width="312" height="17" rx="8.5" fill="#FBE94D"/>
            <rect id="rect_22" x="355" y="144" width="60" height="17" rx="8.5" fill="#13C2FA"/>
        </g>
        <g id="line-three">
            <rect id="rect_23" x="20" y="117" width="257" height="17" rx="8.5" fill="#FE6F6F"/>
            <rect id="rect_24" x="355" y="117" width="39" height="17" rx="8.5" fill="#FBE94D"/>
            <rect id="rect_25" x="297" y="117" width="39" height="17" rx="8.5" fill="#FBE94D"/>
        </g>
        <g id="line-two">
            <rect id="rect_26" x="158" y="90" width="312" height="17" rx="8.5" fill="#FE6F6F"/>
            <rect id="rect_27" x="86" y="90" width="60" height="17" rx="8.5" fill="#13C2FA"/>
            <rect id="rect_28" x="18" y="90" width="60" height="17" rx="8.5" fill="#FBE94D"/>
        </g>
        <g id="line-one">
            <rect id="rect_29" x="18" y="64" width="312" height="17" rx="8.5" fill="#FE6F6F"/>
            <rect id="rect_30" x="339" y="64" width="60" height="17" rx="8.5" fill="#13C2FA"/>
            <rect id="rect_31" x="412" y="64" width="39" height="17" rx="8.5" fill="#FBE94D"/>
        </g>
    </g>
</svg>
